<?xml version="1.0" encoding="UTF-8" standalone="no"?>
<!-- Created with Inkscape (http://www.inkscape.org/) -->

<svg
   version="1.1"
   id="svg2"
   width="333.33334"
   height="333.33334"
   viewBox="0 0 333.33334 333.33334"
   sodipodi:docname="RCShield.eps"
   xmlns:inkscape="http://www.inkscape.org/namespaces/inkscape"
   xmlns:sodipodi="http://sodipodi.sourceforge.net/DTD/sodipodi-0.dtd"
   xmlns="http://www.w3.org/2000/svg"
   xmlns:svg="http://www.w3.org/2000/svg">
  <defs
     id="defs6" />
  <sodipodi:namedview
     id="namedview4"
     pagecolor="#ffffff"
     bordercolor="#000000"
     borderopacity="0.25"
     inkscape:showpageshadow="2"
     inkscape:pageopacity="0.0"
     inkscape:pagecheckerboard="0"
     inkscape:deskcolor="#d1d1d1" />
  <g
     id="g8"
     inkscape:groupmode="layer"
     inkscape:label="ink_ext_XXXXXX"
     transform="matrix(1.3333333,0,0,-1.3333333,0,333.33333)">
    <g
       id="g10"
       transform="scale(0.1)">
      <path
         d="m 1637,1522.68 c -0.2,-0.33 -5.29,-7.96 -14.51,-7.96 h -45.72 l 36.36,31.01 c 1.13,0.81 27.59,20.23 27.59,46.85 0,29.63 -29.38,45.61 -57.03,45.61 -18.66,0 -29.95,-7.69 -36.12,-14.15 -7.62,-7.93 -11.97,-18.66 -11.97,-29.41 0,-17.51 11.34,-29.75 27.72,-29.75 l 0.97,0.04 c 10.06,0 18.23,8.03 18.23,17.86 0,9.86 -8.17,17.88 -18.23,17.88 -3.39,0 -6.65,-0.93 -9.45,-2.59 0.59,4.23 2.51,7.5 4.35,9.77 5.04,6.17 13.98,10.33 22.23,10.33 11.27,0 30.21,-3.94 30.21,-30.31 0,-10.48 -7.22,-23.13 -18.87,-33.04 l -59.95,-52.67 v -12.5 h 107.89 l 7.56,34.58 -10.25,-0.01 -1.01,-1.54"
         style="fill:#60a5fa;fill-opacity:1;fill-rule:nonzero;stroke:none"
         id="path12" />
      <path
         d="m 1441.14,1589.97 v -37.91 h -30.08 z m 0.02,-61.08 c 0.02,-0.82 0.02,-1.62 0.03,-2.39 0.1,-9.83 0.18,-16.93 -3.2,-20.35 -2.2,-2.24 -6.38,-3.33 -12.76,-3.33 h -3.36 v -13.13 h 68.17 v 13.13 h -3.34 c -6.59,0 -10.66,1.03 -12.82,3.2 -3.26,3.3 -3.22,10.62 -3.12,20.77 v 2.1 h 31.13 l 3.52,39.15 h -9.66 l -0.78,-2.26 c -4.19,-12.12 -12.03,-13.69 -24.19,-13.87 v 86.23 h -13.34 l -83.68,-103.19 3.83,-6.06 h 63.57"
         style="fill:#60a5fa;fill-opacity:1;fill-rule:nonzero;stroke:none"
         id="path14" />
      <path
         d="m 953.871,1590.13 c 17.785,0 32.192,14.41 32.192,32.19 0,17.79 -14.407,32.21 -32.192,32.21 -17.781,0 -32.203,-14.42 -32.203,-32.21 0,-17.78 14.422,-32.19 32.203,-32.19"
         style="fill:#60a5fa;fill-opacity:1;fill-rule:nonzero;stroke:none"
         id="path16" />
      <path
         d="m 1581.27,1735.66 2.2,-1.07 c 16.07,-7.81 32.67,-15.9 32.67,-29.45 0,-12.96 -11.52,-22.05 -28.01,-22.05 -16.35,0 -27.36,9.36 -27.36,23.29 0,15.22 9.66,23.17 20.5,29.28 z m 6.86,60.73 c 11.61,0 20.73,-6.86 20.73,-15.62 0,-11.74 -10.03,-19.32 -16.97,-23.16 -12.2,6.16 -24.14,13.69 -24.14,23.16 0,8.76 8.95,15.62 20.38,15.62 z m -55.6,-90.01 c 0,-22.18 25.99,-41.63 55.6,-41.63 31.19,0 55.61,19.36 55.61,44.07 0,21.46 -18.3,32.66 -33.63,40.06 12.93,6.25 26.67,15.83 26.67,30.98 0,18.74 -22.28,34.57 -48.65,34.57 -26.64,0 -48.3,-16.75 -48.3,-37.32 0,-13.38 10.66,-23.18 23.41,-31.57 -14.57,-6.7 -30.71,-17.91 -30.71,-39.16"
         style="fill:#60a5fa;fill-opacity:1;fill-rule:nonzero;stroke:none"
         id="path18" />
      <path
         d="m 1797.24,1375.34 h -410.48 v 2.78 c 0,9.88 7.99,17.88 17.86,17.88 h 357.31 v 410.13 h 35.31 z m -29.2,-272.97 h -472.69 l -7.8,21.47 244.26,171.59 245.01,-171.59 z m -66.62,-58.21 h -4.96 c -7.18,0 -14.38,-6.52 -14.38,-14.38 v -78.589 c -23.04,-32.82 -49.44,-64.269 -79.2,-94.339 v 172.928 c 0,7.86 -7.18,14.38 -14.38,14.38 h -4.94 l -0.03,25.57 h 117.9 z m -221.35,0 h -4.96 c -7.18,0 -14.38,-6.52 -14.38,-14.38 V 740.691 c -27.52,-18.293 -54.3,-34.109 -79.2,-47.601 v 336.69 c 0,7.86 -7.2,14.38 -14.38,14.38 h -4.96 l -0.01,25.57 h 117.9 z m -185.81,759.3 c 0,39.83 31.3,61.13 68.65,63.74 l 362.86,0.25 v -435.8 h -342.05 c -41.4,0 -71.74,-33.57 -71.74,-74.97 h -17.72 z M 1250,1058.17 c -61.84,32.13 -101.46,300.44 -373.988,148.43 l 5.726,-9.64 c 0,0 -68.699,-31.23 -82.386,-65.04 -11.211,-27.68 -11.532,-66.06 25.199,-97.95 v 31.35 c 26.785,25.77 86.562,6.07 113.875,-37.97 50.867,-82.061 17.797,-228.561 17.797,-228.561 C 761.18,955.859 702.395,1166.01 700.73,1291.67 H 1250 Z m -1.62,-424.068 c -14.61,5.929 -22.32,8.539 -37.73,15.168 -30.79,51.289 -54.85,132.808 -54.85,132.808 0,0 -11.89,-49.078 10.84,-113.387 -15.82,8.071 -49.99,23.598 -84.87,45.297 -32.6,56.832 -47.83,133.512 -47.83,177.953 0,134.309 214.44,15.219 214.44,15.219 z M 985.199,1159.47 c -3.949,-16.55 -21.89,-26.4 -37.836,-22.53 -19.746,4.77 -28.574,12.99 -38.57,25.54 0,0 19.062,9.77 38.508,15.85 19.445,6.06 33.101,6.49 33.101,6.49 4.942,-7.01 6.973,-16.17 4.797,-25.35 z m -227.601,495.4 c -2.735,0 -5.422,-0.4 -8.078,-1.16 -0.161,1.94 -0.239,3.84 -0.239,5.72 0,39.68 33.133,61.62 56.067,61.62 26.609,0 43.765,-20.5 60.351,-40.31 15.094,-18.04 31.758,-22.99 53.617,-23.7 -0.8,22.63 -5.82,38.34 -23.859,53.46 -19.812,16.59 -40.312,33.74 -40.312,60.35 0,22.92 21.921,56.07 61.628,56.07 1.872,0 3.774,-0.08 5.692,-0.24 -0.766,-2.64 -1.164,-5.36 -1.164,-8.08 0,-17.3 14.617,-31.39 32.554,-31.39 17.946,0 32.563,14.09 32.563,31.39 0,2.72 -0.402,5.42 -1.168,8.08 1.934,0.16 3.836,0.24 5.707,0.24 39.693,0 61.643,-33.15 61.643,-56.07 0,-26.61 -20.5,-43.76 -40.31,-60.35 -18.04,-15.09 -22.997,-31.77 -23.716,-53.63 22.646,0.81 38.346,5.83 53.456,23.87 16.59,19.81 33.74,40.31 60.35,40.31 22.94,0 56.09,-21.92 56.09,-61.62 0,-1.88 -0.1,-3.78 -0.24,-5.7 -2.64,0.77 -5.36,1.17 -8.08,1.17 -17.3,0 -31.39,-14.62 -31.39,-32.56 0,-17.94 14.09,-32.56 31.39,-32.56 2.72,0 5.42,0.4 8.08,1.15 0.14,-1.91 0.24,-3.83 0.24,-5.7 0,-39.69 -33.15,-61.64 -56.09,-61.64 -26.61,0 -43.76,20.51 -60.35,40.32 -15.09,18.04 -31.76,22.99 -53.616,23.7 0.816,-22.63 5.82,-38.33 23.876,-53.45 19.81,-16.59 40.31,-33.75 40.31,-60.36 0,-22.92 -21.94,-56.07 -61.643,-56.07 -1.871,0 -3.773,0.1 -5.691,0.24 0.781,2.64 1.168,5.36 1.168,8.08 0,17.3 -14.618,31.39 -32.543,31.39 -17.942,0 -32.559,-14.09 -32.559,-31.39 0,-2.72 0.398,-5.42 1.148,-8.08 -1.933,-0.14 -3.835,-0.24 -5.707,-0.24 -39.691,0 -61.628,33.15 -61.628,56.07 0,26.61 20.5,43.77 40.312,60.36 18.039,15.1 22.996,31.77 23.699,53.63 -22.644,-0.82 -38.332,-5.84 -53.457,-23.88 -16.586,-19.81 -33.742,-40.32 -60.351,-40.32 -22.934,0 -56.067,21.93 -56.067,61.64 0,1.87 0.078,3.79 0.239,5.7 2.64,-0.78 5.343,-1.18 8.078,-1.18 17.3,0 31.375,14.62 31.375,32.56 0,17.94 -14.075,32.56 -31.375,32.56 z M 617.273,1953.9 v -623.4 c 0,-240.25 107.735,-451.66 311.528,-611.359 C 1080.81,600.02 1231.26,551.949 1237.57,549.969 l 12.33,-3.867 12.36,3.82 c 6.34,1.949 156.83,49.379 308.89,168.187 203.84,159.282 311.58,371.031 311.58,612.391 v 623.4 H 617.273"
         style="fill:#60a5fa;fill-opacity:1;fill-rule:nonzero;stroke:none"
         id="path20" />
      <path
         d="m 1489.68,1680.04 h -3.36 c -4.93,0 -8.52,1.19 -10.99,3.69 -5.15,5.22 -5.03,15.75 -4.94,25.06 l 0.02,104.39 -48.9,-11.69 v -12.44 h 3.34 c 7.55,0 11.96,-0.34 13.72,-2.08 2.3,-2.32 2.27,-9.5 2.22,-21.4 l -0.01,-53.07 0.03,-3.42 c 0.13,-8.3 0.3,-19.65 -5.25,-25.28 -2.49,-2.53 -5.99,-3.76 -10.71,-3.76 h -3.34 v -13.13 h 68.17 v 13.13"
         style="fill:#60a5fa;fill-opacity:1;fill-rule:nonzero;stroke:none"
         id="path22" />
      <path
         d="m 1496.44,1171.34 c 0,-19.46 15.79,-35.25 35.25,-35.25 19.46,0 35.24,15.79 35.24,35.25 0,19.48 -15.78,35.26 -35.24,35.26 -19.46,0 -35.25,-15.78 -35.25,-35.26"
         style="fill:#60a5fa;fill-opacity:1;fill-rule:nonzero;stroke:none"
         id="path24" />
      <path
         d="m 1629.26,689.609 h 19.94 v -56.558 h 17.38 v 56.558 h 19.93 v 13.641 h -57.25 v -13.641"
         style="fill:#60a5fa;fill-opacity:1;fill-rule:nonzero;stroke:none"
         id="path26" />
      <path
         d="m 1736.27,657.07 -17.56,46.18 h -23.17 v -70.199 h 16.35 v 49.75 h 0.34 l 18.06,-49.75 h 11.76 l 18.06,49.75 h 0.34 v -49.75 h 16.37 v 70.199 h -23.01 l -17.54,-46.18"
         style="fill:#60a5fa;fill-opacity:1;fill-rule:nonzero;stroke:none"
         id="path28" />
    </g>
  </g>
</svg>
