<?xml version="1.0" encoding="UTF-8"?>
<svg version="1.1" xmlns="http://www.w3.org/2000/svg" width="1089" height="1206">
<path d="M0 0 C359.37 0 718.74 0 1089 0 C1089 397.98 1089 795.96 1089 1206 C729.63 1206 370.26 1206 0 1206 C0 808.02 0 410.04 0 0 Z " fill="#881A44" transform="translate(0,0)"/>
<path d="M0 0 C359.37 0 718.74 0 1089 0 C1089 397.98 1089 795.96 1089 1206 C729.63 1206 370.26 1206 0 1206 C0 808.02 0 410.04 0 0 Z M15 16 C14.938125 104.56375 14.87625 193.1275 14.8125 284.375 C14.78518799 312.28884277 14.75787598 340.20268555 14.72973633 368.96240234 C14.7197 394.09077398 14.7197 394.09077398 14.71366882 419.21914673 C14.71070348 431.09935492 14.69783772 442.97951088 14.67997972 454.85970451 C14.66194729 467.02282351 14.65552938 479.18591028 14.65966515 491.3490421 C14.66160611 497.9287429 14.65884512 504.50836717 14.64235461 511.08805537 C14.48205764 578.32172407 19.88313735 645.2260655 39 710 C39.41838135 711.45188721 39.41838135 711.45188721 39.84521484 712.93310547 C54.04584006 762.06742536 75.03271945 810.5025424 102 854 C102.39687012 854.64533691 102.79374023 855.29067383 103.20263672 855.95556641 C115.38592779 875.76489211 128.36873496 895.09559941 142.73925781 913.39208984 C144.05917901 915.07547502 145.36987117 916.76577453 146.6796875 918.45703125 C152.47302505 925.91458797 158.44505404 933.1914262 164.59521484 940.35693359 C166.01599182 942.01870437 167.42502753 943.68983978 168.83203125 945.36328125 C181.45247406 960.32630034 195.11921239 974.21332367 208.9375 988.0625 C209.61930328 988.74698212 210.30110657 989.43146423 211.00357056 990.13668823 C217.82447854 996.97789074 224.61658522 1003.76038223 232 1010 C233.77570221 1011.61967817 235.54708307 1013.24411718 237.3125 1014.875 C241.79662928 1018.96437787 246.40267238 1022.84619021 251.125 1026.65625 C253.69344213 1028.75008869 256.22013296 1030.88156979 258.73706055 1033.03637695 C265.02253209 1038.41308305 271.4558473 1043.55808577 278.06103516 1048.53808594 C279.45806958 1049.59140275 280.85336745 1050.6470242 282.24755859 1051.70410156 C320.23152803 1080.50050204 360.14002117 1106.20175525 402 1129 C403.00981934 1129.55268555 404.01963867 1130.10537109 405.06005859 1130.67480469 C444.64838266 1152.30224373 486.05976693 1172.01082536 529 1186.0625 C529.90290771 1186.3622876 530.80581543 1186.6620752 531.73608398 1186.97094727 C532.58630127 1187.23963623 533.43651855 1187.5083252 534.3125 1187.78515625 C535.05113281 1188.02113525 535.78976562 1188.25711426 536.55078125 1188.50024414 C542.08480819 1189.62944601 546.81185751 1189.02553052 552.12109375 1187.26953125 C553.28785645 1186.88531006 554.45461914 1186.50108887 555.65673828 1186.10522461 C556.90438965 1185.67862549 558.15204102 1185.25202637 559.4375 1184.8125 C560.0853949 1184.59369171 560.73328979 1184.37488342 561.40081787 1184.14944458 C583.14010568 1176.79260593 604.42770803 1167.95890797 625.23291016 1158.28417969 C627.88468746 1157.05351544 630.54155808 1155.83432089 633.19953918 1154.61712646 C703.03084118 1122.60791588 770.67511466 1081.67792822 829.05859375 1031.5078125 C831.8345394 1029.14106999 834.65563193 1026.84617969 837.5 1024.5625 C842.87934675 1020.18834505 847.93641683 1015.51145346 853 1010.78125 C855.35016717 1008.58932351 857.74437604 1006.46347694 860.1875 1004.375 C864.10374528 1000.99466197 867.70490837 997.33009411 871.3125 993.625 C873.43851662 991.54842563 875.58661251 989.61473952 877.83984375 987.68359375 C882.02694978 984.05136995 885.80308766 980.13024781 889.5625 976.0625 C890.96084171 974.5611087 892.35928165 973.05980887 893.7578125 971.55859375 C894.46067383 970.80175293 895.16353516 970.04491211 895.88769531 969.26513672 C897.9318434 967.07308795 899.99005121 964.89540184 902.0546875 962.72265625 C908.20312531 956.24284259 914.20675108 949.74875005 919.7734375 942.75390625 C921.8886285 940.13774896 924.06999718 937.60067766 926.2824707 935.06738281 C932.75057309 927.64872637 938.68774751 919.92306239 944.51757812 911.99707031 C945.94547187 910.07345851 947.39660887 908.17061908 948.859375 906.2734375 C971.83168616 876.38133231 992.57011536 843.21085232 1008.14111328 808.84667969 C1009.44601178 806.04103665 1010.88608357 803.3079321 1012.3125 800.5625 C1022.09823687 781.07998751 1029.69885263 760.51393957 1037 740 C1037.34627441 739.0404541 1037.69254883 738.0809082 1038.04931641 737.09228516 C1063.74476258 665.46826479 1070.53438636 590.4225533 1070.34821819 514.88277113 C1070.33628396 508.77345424 1070.33899358 502.66415468 1070.34104129 496.5548293 C1070.34472816 484.16669956 1070.33505361 471.77861828 1070.31672668 459.39050293 C1070.2919908 442.64020074 1070.28640373 425.88998072 1070.28381348 409.13964844 C1070.26812506 368.92642254 1070.22624127 328.7132103 1070.1875 288.5 C1070.125625 198.575 1070.06375 108.65 1070 16 C721.85 16 373.7 16 15 16 Z " fill="#000000" transform="translate(0,0)"/>
<path d="M0 0 C1.26731461 -0.00171204 2.53462921 -0.00342407 3.84034729 -0.00518799 C7.33943303 -0.00964568 10.83839493 -0.00168596 14.33746496 0.00836357 C18.17569958 0.01713384 22.01392903 0.01417192 25.85217094 0.01272774 C33.29360315 0.01166693 40.73498685 0.02087708 48.17640661 0.0337304 C56.78882292 0.04815949 65.40121031 0.04972149 74.01364136 0.05130005 C96.73964185 0.0617905 119.4656316 0.08971284 142.19161987 0.11550903 C218.35974487 0.17738403 218.35974487 0.17738403 296.06661987 0.24050903 C296.06661987 119.70050903 296.06661987 239.16050903 296.06661987 362.24050903 C151.00411987 362.49050903 151.00411987 362.49050903 105.22262573 362.5383606 C91.66439858 362.57158586 91.66439858 362.57158586 78.10618591 362.6100769 C72.07348272 362.62706239 66.04088787 362.63327086 60.00816345 362.63204956 C53.04177265 362.63067684 46.07556827 362.64322037 39.10923663 362.67254792 C35.54971058 362.68710503 31.99047372 362.6956836 28.43092334 362.68633318 C5.28678999 362.64596344 -14.59294493 364.12790437 -31.93338013 381.24050903 C-42.90714425 394.37499881 -46.63893144 408.61974658 -48.93338013 425.24050903 C-53.55338013 425.24050903 -58.17338013 425.24050903 -62.93338013 425.24050903 C-63.02466376 376.79726913 -63.09543601 328.35404015 -63.13764144 279.91073107 C-63.14264417 274.18935809 -63.14782147 268.46798528 -63.15310669 262.74661255 C-63.15415593 261.60760774 -63.15520517 260.46860293 -63.15628621 259.29508283 C-63.1736834 240.86130519 -63.20521733 222.42757753 -63.24199131 203.99382953 C-63.27941978 185.07397225 -63.30162002 166.15414112 -63.30973411 147.23424834 C-63.31521791 135.56309219 -63.33252757 123.89207734 -63.36504599 112.22096469 C-63.38621738 104.21368305 -63.39257422 96.20647428 -63.38738564 88.19916669 C-63.38482796 83.58187677 -63.38870196 78.96483347 -63.41020203 74.34758759 C-63.4297726 70.11362608 -63.43058257 65.88007533 -63.41697571 61.64609428 C-63.41529583 60.1209657 -63.42028076 58.59581072 -63.43291286 57.07073352 C-63.55956464 40.8246349 -59.89788658 28.4399903 -48.68338013 16.55300903 C-35.18470352 3.59608534 -18.15416503 -0.09016945 0 0 Z " fill="#FEFDFE" transform="translate(642.9333801269531,88.75949096679688)"/>
<path d="M0 0 C0.00257813 0.96679688 0.00515625 1.93359375 0.0078125 2.9296875 C0.26675133 11.64729491 1.06905127 18.12699901 7 25 C14.18738641 31.66610344 21.65851342 32.63674207 31.04296875 32.37109375 C38.53937279 31.66807462 42.85254697 28.45901196 47.9375 23.125 C53.46643809 16.25532635 53.47004417 8.49323949 54 0 C68.58678118 -0.87133427 82.13557589 3.73530548 93.3125 13.1875 C101.59975858 21.12890188 108.22290547 31.68803955 109.30859375 43.30078125 C109.61556065 58.95609321 103.54077211 70.9310814 92.90576172 82.18310547 C86.98880842 88.22062651 80.46277929 93.56515558 74 99 C62.04302287 109.06395006 57.83983451 121.99480147 56.375 137.125 C56.24449461 138.74956712 56.11743619 140.37443587 56 142 C80.09017413 138.53605339 93.45434187 130.66859769 108.8984375 111.5625 C117.00945872 101.67248157 129.68579665 90.27129134 142.90771484 88.78564453 C157.23640534 87.71822526 168.51180087 91.14983178 180 100 C187.32009812 106.54774131 191.47882666 113.90267348 195 123 C195.38027344 123.95648438 195.76054687 124.91296875 196.15234375 125.8984375 C197.16506591 129.60397389 197.22084899 133.07053254 197.125 136.875 C197.11597656 137.56335938 197.10695313 138.25171875 197.09765625 138.9609375 C197.07432513 140.64077838 197.03846326 142.32043746 197 144 C196.32195312 143.95359375 195.64390625 143.9071875 194.9453125 143.859375 C186.08615796 143.51580668 178.85072691 145.07184578 172.125 151.125 C166.42589215 157.45734206 164.27503127 164.82757426 164.609375 173.2578125 C165.58887739 180.13391928 168.3321868 185.87699225 173 191 C180.72826872 196.36556006 187.72318119 197.88820606 197 197 C197.9327157 212.59707925 194.0884997 225.11211483 184.19140625 237.2109375 C175.5370214 246.6030142 163.49416522 252.84528427 150.6875 253.4375 C134.01909542 252.82796622 121.68322995 243.37692759 110.5625 231.8359375 C107.24762859 228.16734505 104.13963084 224.3569212 101.04296875 220.50390625 C89.67928066 206.57632678 76.73747558 202.12151419 59.40234375 200.33203125 C58.27957031 200.22246094 57.15679687 200.11289062 56 200 C57.56100505 219.66400392 63.30070411 233.69320383 78.5625 246.8125 C81.02791511 248.89180022 83.51325287 250.94630467 86 253 C97.58639829 262.61475697 107.79965363 275.37921531 109.2734375 290.875 C109.73025929 304.93105521 104.1814369 316.19794509 94.78515625 326.40625 C84.73243341 336.18199344 72.30417554 341.04685596 58.375 341.125 C56.91640983 341.09358421 55.4578597 341.05583292 54 341 C53.91363281 339.9378125 53.82726562 338.875625 53.73828125 337.78125 C52.88700691 328.71314119 52.07754767 321.73619992 45.140625 315.265625 C38.39349659 309.77377629 31.65313845 308.44635518 23.0625 308.62890625 C14.98676805 309.60747071 9.48230004 313.84802687 4.375 319.9375 C1.26548324 324.60177514 0.68643017 328.75866202 0.375 334.3125 C0.30023438 335.56675781 0.22546875 336.82101562 0.1484375 338.11328125 C0.09945312 339.06589844 0.05046875 340.01851563 0 341 C-14.55340735 341.68576265 -27.11278531 338.3597298 -38.25 328.6875 C-46.82896839 320.56571802 -54.23709757 310.40079774 -55.3359375 298.30078125 C-55.51035377 280.49288047 -48.66483759 269.59411268 -36.671875 256.65625 C-33.23308793 253.2375728 -29.53484832 250.25980865 -25.7421875 247.24609375 C-18.29069921 241.14266673 -11.90631252 234.8902285 -8 226 C-7.63261719 225.19304687 -7.26523437 224.38609375 -6.88671875 223.5546875 C-3.62202403 215.600704 -2.80897765 207.48362093 -2 199 C-2.66 199.33 -3.32 199.66 -4 200 C-5.78431861 200.21053292 -7.56929766 200.41695748 -9.35717773 200.59472656 C-27.45020663 202.43350767 -39.73454901 210.70420671 -51.24609375 224.73828125 C-51.96925781 225.64964844 -52.69242187 226.56101562 -53.4375 227.5 C-62.93707846 239.32429925 -75.58752158 250.3775783 -91 253 C-103.2003893 254.17570892 -114.21280695 250.21584512 -124 243 C-134.14486199 234.43359303 -140.43995 224.07979571 -143 211 C-143.28828119 206.3084561 -143.25323614 201.691903 -143 197 C-142.24976563 197.05800781 -141.49953125 197.11601562 -140.7265625 197.17578125 C-131.90240099 197.56475562 -125.54821068 196.10942226 -118.89453125 190.09765625 C-112.16551459 182.86916618 -111.36045173 175.4736686 -111.625 165.92578125 C-112.29968718 158.8626498 -115.2213087 154.45441915 -120.25 149.625 C-127.16268945 144.25012267 -134.48215938 143.5198712 -143 144 C-143.84687185 128.3093465 -140.33364725 116.20085595 -130.34375 103.97265625 C-125.92139672 99.20611038 -120.69969211 96.04805791 -115 93 C-114.27941406 92.59523438 -113.55882812 92.19046875 -112.81640625 91.7734375 C-105.52175506 88.05249616 -96.78393596 86.90752616 -88.75 88.6875 C-76.93325473 92.82336084 -67.74715795 98.70913011 -59 107.6875 C-58.30648437 108.38794434 -57.61296875 109.08838867 -56.8984375 109.81005859 C-53.03293545 113.75971132 -49.42531839 117.78983142 -46 122.125 C-34.79735163 136.27125541 -19.23920294 139.96298259 -2 142 C-4.82778238 119.6188192 -10.46913174 106.03947333 -28.375 91.625 C-40.05160624 82.13376952 -52.82742932 69.71111638 -55 54 C-56.31374342 40.36424936 -53.07824941 30.21928454 -44.92578125 19.30859375 C-36.73376071 9.48813911 -25.18532846 2.17460224 -12.3984375 0.19921875 C-8.25911387 -0.14460129 -4.14848325 -0.15887808 0 0 Z " fill="#FEFDFE" transform="translate(269,122)"/>
<path d="M0 0 C151.14 0 302.28 0 458 0 C458 64.02 458 128.04 458 194 C449.89024127 190.75609651 445.04783944 185.3169608 439.875 178.4375 C439.03932495 177.33329712 439.03932495 177.33329712 438.18676758 176.20678711 C431.49649011 167.19836657 425.77796725 157.60647076 420 148 C404.66809563 122.63037887 388.87507208 97.87670342 368.32226562 76.38525391 C367.17857825 75.18708511 366.04888643 73.97558633 364.921875 72.76171875 C341.25047318 47.94653071 307.21272714 34.18589552 273.296875 32.75 C232.60380727 31.79996729 194.50726853 46.75143605 158.625 64.5 C157.57763672 65.0165918 156.53027344 65.53318359 155.45117188 66.06542969 C154.49017578 66.54915039 153.52917969 67.03287109 152.5390625 67.53125 C151.25829834 68.17416992 151.25829834 68.17416992 149.95166016 68.83007812 C147.84995605 69.85240709 147.84995605 69.85240709 147 72 C147.9873454 73.67419438 148.98812105 75.34051852 150 77 C150 77.99 150 78.98 150 80 C149.05382812 80.44988281 148.10765625 80.89976562 147.1328125 81.36328125 C121.68398791 93.66262358 92.48314873 109.82094975 81 137 C75.39847974 153.32691178 75.29516856 170.83109356 82.3125 186.8125 C83.18342304 188.55434608 84.07876455 190.28423196 85 192 C85.62841797 193.22589844 85.62841797 193.22589844 86.26953125 194.4765625 C90.39690495 201.97006519 96.0993297 207.88934143 102 214 C101.98839844 213.27409668 101.97679687 212.54819336 101.96484375 211.80029297 C101.93525177 208.49074695 101.96705154 205.18449011 102 201.875 C101.98066406 200.73289062 101.96132812 199.59078125 101.94140625 198.4140625 C102.08434813 190.21872797 102.08434813 190.21872797 104.53125 186.96191406 C111.99435649 180.97588073 120.73986564 179.43044108 130.0625 179.5 C131.43559326 179.50966797 131.43559326 179.50966797 132.83642578 179.51953125 C151.90583802 180.02494549 169.11411808 189.34792019 183 202 C183.70511719 202.62390625 184.41023437 203.2478125 185.13671875 203.890625 C205.89794182 223.30583557 214.79910354 253.73708666 219 281 C219.17877686 282.14863525 219.35755371 283.29727051 219.54174805 284.48071289 C221.42201336 297.67350471 221.35333059 310.88567342 221.3125 324.1875 C221.31100952 325.38320618 221.30951904 326.57891235 221.3079834 327.81085205 C221.2670998 346.04951355 220.71219252 363.93712922 218 382 C217.82887695 383.14662109 217.65775391 384.29324219 217.48144531 385.47460938 C214.78025367 403.15782023 214.78025367 403.15782023 213 410 C209.13226641 408.35435374 206.15144415 405.7778509 203 403.0625 C202.4325708 402.57813477 201.8651416 402.09376953 201.28051758 401.59472656 C196.4030961 397.4049992 191.65700074 393.08183236 186.94921875 388.703125 C185.44902345 387.31047059 183.93833325 385.94765054 182.37768555 384.62280273 C175.69945494 378.94983946 169.57224781 372.72285255 163.39086914 366.52124023 C161.4420313 364.56704376 159.48790728 362.61824853 157.53320312 360.66992188 C151.47726142 354.61755559 145.50221703 348.56802641 140 342 C139.03937583 340.89312721 138.07716114 339.78763258 137.11328125 338.68359375 C114.25655094 312.25927855 93.97351894 283.95586491 76 254 C75.27611084 252.79996338 75.27611084 252.79996338 74.53759766 251.57568359 C47.02159146 205.66536403 27.49910346 155.68646141 14 104 C13.83113281 103.3602121 13.66226563 102.72042419 13.48828125 102.06124878 C10.85522863 92.04887439 8.72847648 82.01897126 7 71.8125 C6.87437683 71.07808685 6.74875366 70.34367371 6.61932373 69.58700562 C4.57524278 57.53781343 2.96146544 45.45959327 1.625 33.3125 C1.53959961 32.55643463 1.45419922 31.80036926 1.36621094 31.02139282 C1.12136309 28.82385341 0.8902406 26.62531375 0.6640625 24.42578125 C0.53467285 23.18223877 0.4052832 21.93869629 0.27197266 20.6574707 C-0.12947547 13.78276166 0 6.88642033 0 0 Z " fill="#FEFDFD" transform="translate(85,568)"/>
<path d="M0 0 C7.62765236 4.620274 14.8317566 9.71322517 22.03515625 14.95996094 C26.9353672 18.52356634 31.87131006 22.02079417 36.875 25.4375 C42.86003207 29.52503972 48.8151528 33.65237281 54.75 37.8125 C55.59030762 38.401521 56.43061523 38.99054199 57.29638672 39.59741211 C59.00956009 40.79865703 60.72261286 42.00007396 62.43554688 43.20166016 C66.62173125 46.13724984 70.81099592 49.06843609 75 52 C76.66668197 53.16664481 78.33334862 54.3333115 80 55.5 C81.2375 56.36625 81.2375 56.36625 82.5 57.25 C150 104.5 150 104.5 152.50024414 106.25024414 C154.16600525 107.41622811 155.83185804 108.5820811 157.49780273 109.74780273 C161.67908827 112.67384453 165.85872802 115.60218484 170.03515625 118.53515625 C181.29971366 126.44129563 192.62338798 134.25596122 204 142 C203.41249992 146.4529836 202.26681981 150.18820842 200.5 154.3125 C200.0565625 155.36050781 199.613125 156.40851563 199.15625 157.48828125 C198 160 198 160 197 161 C194.90979412 161.09794254 192.81620735 161.1237119 190.72370815 161.12304783 C189.72414854 161.1247786 189.72414854 161.1247786 188.7043958 161.12654433 C186.44356681 161.12921745 184.18280728 161.12468317 181.92198181 161.12025452 C180.29594724 161.12069008 178.66991274 161.1215647 177.04387861 161.12284368 C172.55390901 161.12509163 168.06396302 161.12106328 163.57399642 161.11606562 C158.74029467 161.11176558 153.90659436 161.11320723 149.07289124 161.1139679 C140.6909497 161.11449342 132.30901592 161.1113437 123.92707634 161.10573006 C111.80805048 161.09761884 99.6890284 161.09500023 87.57000012 161.09374207 C67.90986449 161.09155095 48.24973299 161.08488925 28.58959961 161.07543945 C9.48640972 161.06626687 -9.61677905 161.05918529 -28.7199707 161.05493164 C-30.484891 161.05453756 -30.484891 161.05453756 -32.28546626 161.05413551 C-38.18791969 161.05283051 -44.09037313 161.0515668 -49.99282658 161.05032361 C-98.99522061 161.03994914 -147.99761004 161.02225511 -197 161 C-198.98 155.06 -200.96 149.12 -203 143 C-192.23633898 135.17188289 -181.40640989 127.46290799 -170.46923828 119.87939453 C-164.73301356 115.90198559 -159.0100757 111.90758044 -153.3125 107.875 C-147.22155721 103.56427267 -141.11557179 99.27572003 -135 95 C-128.82314031 90.68097095 -122.65432903 86.35107572 -116.5 82 C-109.49590239 77.04814271 -102.47110748 72.12636217 -95.44140625 67.2109375 C-90.11820565 63.48715773 -84.80455295 59.75028886 -79.5 56 C-73.34567055 51.64892398 -67.17680583 47.31910656 -61 43 C-52.67594532 37.17881568 -44.37081622 31.33145779 -36.07666016 25.46777344 C-32.55232484 22.97679014 -29.02605338 20.48855041 -25.5 18 C-24.10545971 17.0156378 -22.71092849 16.03126276 -21.31640625 15.046875 C-18.26171875 12.890625 -15.20703125 10.734375 -12.15234375 8.578125 C-11.3634375 8.02125 -10.57453125 7.464375 -9.76171875 6.890625 C-8.61123047 6.07851563 -8.61123047 6.07851563 -7.4375 5.25 C-6.69242188 4.7240625 -5.94734375 4.198125 -5.1796875 3.65625 C-3.453125 2.4375 -1.7265625 1.21875 0 0 Z " fill="#FEFDFD" transform="translate(777,565)"/>
<path d="M0 0 C1.12664062 0.32226562 2.25328125 0.64453125 3.4140625 0.9765625 C29.10964723 8.49590203 52.93410539 20.33168746 77 32 C77 107.24 77 182.48 77 260 C45.19627678 248.07360379 45.19627678 248.07360379 41.6875 241.125 C41.12748291 240.06986206 41.12748291 240.06986206 40.55615234 238.9934082 C39.34208597 236.67580535 38.16757099 234.34133978 37 232 C36.60409668 231.2177002 36.20819336 230.43540039 35.80029297 229.62939453 C25.26752582 208.68707534 16.91506471 186.82692369 8.9375 164.8125 C8.65369476 164.03155975 8.36988953 163.25061951 8.07748413 162.4460144 C7.26399207 160.20148691 6.45689137 157.95477854 5.65234375 155.70703125 C5.4132428 155.04657806 5.17414185 154.38612488 4.92779541 153.70565796 C3.32256247 149.1832629 2.10562919 144.66292719 1 140 C0.67 140 0.34 140 0 140 C-0.80156082 144.97112934 -1.18303602 149.82487227 -1.23828125 154.86328125 C-1.24802979 155.60440155 -1.25777832 156.34552185 -1.26782227 157.10910034 C-1.51033372 180.38080228 0.18604407 202.39540033 7.046875 224.78125 C8 228 8 228 8 230 C3.23274449 228.54095604 -1.16580965 226.57720687 -5.6171875 224.359375 C-6.70671471 223.82079361 -6.70671471 223.82079361 -7.81825256 223.27133179 C-10.17343783 222.10334682 -12.52466748 220.92771718 -14.875 219.75 C-15.67535675 219.35004822 -16.4757135 218.95009644 -17.30032349 218.5380249 C-61.26323111 196.52000819 -61.26323111 196.52000819 -65.90234375 186.66796875 C-66.39726318 185.62954834 -66.89218262 184.59112793 -67.40209961 183.52124023 C-68.1621228 181.87103882 -68.1621228 181.87103882 -68.9375 180.1875 C-69.46674072 179.05836182 -69.99598145 177.92922363 -70.54125977 176.76586914 C-76.3385509 164.29637581 -81.35641135 151.76582094 -85.24462891 138.5625 C-85.80162958 136.67294633 -86.36471281 134.78518313 -86.93115234 132.8984375 C-91.48099398 117.71047693 -95.51996198 102.66512586 -98 87 C-98.14808105 86.1322998 -98.29616211 85.26459961 -98.44873047 84.37060547 C-102.4362281 60.75036924 -106.34423444 30.02232274 -91.91015625 9.3671875 C-70.28455333 -17.43263944 -28.53444243 -9.18905773 0 0 Z " fill="#FEFDFE" transform="translate(464,856)"/>
<path d="M0 0 C32.34 0 64.68 0 98 0 C98 6.93 98 13.86 98 21 C95.03 21.66 92.06 22.32 89 23 C86.34380635 25.21349471 84.54030258 26.91939484 83 30 C82.91904193 31.34414367 82.90044668 32.69232457 82.91440773 34.03883171 C82.92065056 34.88884534 82.9268934 35.73885896 82.93332541 36.61463058 C82.94530758 37.55390179 82.95728975 38.49317301 82.96963501 39.46090698 C82.97810278 40.45461937 82.98657056 41.44833176 82.99529493 42.47215664 C83.01440498 44.65942039 83.03579707 46.84666505 83.0591259 49.03388786 C83.12363921 55.11347271 83.17106856 61.19320437 83.22158813 67.2729187 C83.2328694 68.57169284 83.24415066 69.87046697 83.25577378 71.2085979 C83.33736055 80.72275309 83.38988548 90.23681728 83.42514038 99.75125122 C83.4277192 100.43927873 83.43029802 101.12730623 83.43295498 101.83618306 C83.45663814 108.22776585 83.47819463 114.6193548 83.49767995 121.01095176 C83.51109079 125.39630234 83.52552348 129.78164846 83.54101562 134.16699219 C83.54357441 134.89541408 83.54613319 135.62383597 83.54876952 136.37433125 C83.5920905 148.15849933 83.69954936 159.94127437 83.82996221 171.72476242 C83.96238892 183.82972162 84.02217344 195.93351673 84.01604402 208.03920472 C84.0147304 214.83409627 84.04676756 221.62538887 84.16350174 228.41936874 C84.27027095 234.81831573 84.28748477 241.21136104 84.23715401 247.61094093 C84.23436735 249.95398317 84.26390223 252.29733051 84.32882118 254.63947487 C84.77984081 271.86127269 84.77984081 271.86127269 80.13589811 277.10476351 C75.59842314 280.8546402 70.61938695 283.49672143 65.28305221 285.93016934 C62.13078505 287.40731123 59.27938425 289.19861367 56.34375 291.06640625 C54.3975249 292.23459366 52.44962953 293.40000326 50.5 294.5625 C49.45900146 295.18455322 48.41800293 295.80660645 47.34545898 296.44750977 C40.59972348 300.46998788 33.84329445 304.47438281 27.0625 308.4375 C25.87333984 309.13758179 25.87333984 309.13758179 24.66015625 309.85180664 C19.23453353 313 19.23453353 313 17 313 C16.99940291 312.40557488 16.99880582 311.81114976 16.99819064 311.19871175 C16.96230452 275.97608075 16.90567765 240.75354263 16.82207905 205.53099176 C16.81206147 201.30272532 16.80221736 197.0744585 16.79248047 192.84619141 C16.7905391 192.0044119 16.78859772 191.1626324 16.78659752 190.29534443 C16.75556793 176.66149747 16.73859419 163.02766734 16.72680578 149.39379172 C16.71439918 135.40642117 16.68690892 121.41913905 16.64538693 107.43182433 C16.62023741 98.79937455 16.60688378 90.16707141 16.60857043 81.53458448 C16.60860016 75.61669612 16.59399182 69.69895725 16.56783572 63.78112714 C16.55317333 60.36569097 16.54500062 56.95056135 16.55419731 53.53509903 C16.56080375 49.83218205 16.54299517 46.13016407 16.51898193 42.42733765 C16.52674235 41.34756728 16.53450277 40.26779691 16.54249835 39.15530622 C16.47304115 33.12270185 16.03858811 29.5873253 12 25 C7.81791727 21.72215137 5.73159612 21.81879945 0 21 C0 14.07 0 7.14 0 0 Z " fill="#FEFDFE" transform="translate(636,753)"/>
<path d="M0 0 C9.24 0 18.48 0 28 0 C28 118.14 28 236.28 28 358 C-84.53 358 -197.06 358 -313 358 C-312 349 -312 349 -309.8125 346.125 C-302.81380545 340.83709745 -297.38694815 340.57457017 -288.85134888 340.63923645 C-287.62004745 340.6366684 -286.38874603 340.63410034 -285.12013245 340.63145447 C-281.70304083 340.62735591 -278.28646531 340.63675258 -274.86943594 340.65178181 C-271.12785254 340.66488927 -267.38628201 340.66049749 -263.64468193 340.65832806 C-256.38278579 340.65673353 -249.12100101 340.67058107 -241.85913347 340.68983204 C-233.458731 340.71143446 -225.05839537 340.71381642 -216.65795898 340.71618652 C-194.48028835 340.7319367 -172.3026425 340.77382006 -150.125 340.8125 C-75.813125 340.9053125 -75.813125 340.9053125 0 341 C0 228.47 0 115.94 0 0 Z " fill="#FEFCFD" transform="translate(970,140)"/>
<path d="M0 0 C32.34 0 64.68 0 98 0 C98 6.93 98 13.86 98 21 C95.03 21.66 92.06 22.32 89 23 C85.47787605 25.24816422 83.50029334 27.12190385 82 31 C81.74004259 34.09595044 81.74004259 34.09595044 81.83984375 37.56591797 C81.84586105 38.21701035 81.85187836 38.86810272 81.858078 39.53892517 C81.87124856 40.95049913 81.88836967 42.36204055 81.90899658 43.77352524 C81.94781015 46.79471342 81.94974524 49.8155749 81.95379639 52.83697701 C81.96149987 58.45310467 81.98242936 64.06810894 82.07177734 69.68359375 C82.13263578 73.59872452 82.14339597 77.51139836 82.12307739 81.42691422 C82.12433963 82.90591042 82.14320495 84.38501722 82.18136597 85.86352158 C82.48525144 98.14673841 78.7120916 104.91351908 71 114 C69.96990193 115.34157972 68.94493874 116.6871961 67.93359375 118.04296875 C67.10519092 119.09401583 66.27328462 120.14231328 65.4375 121.1875 C64.98044678 121.76371094 64.52339355 122.33992187 64.05249023 122.93359375 C62.7064348 124.62628596 61.35461551 126.31415386 60 128 C59.24976563 128.93457031 58.49953125 129.86914062 57.7265625 130.83203125 C55.50422221 133.57184789 53.25955036 136.29078787 51 139 C50.5663916 139.51997559 50.1327832 140.03995117 49.68603516 140.57568359 C39.4344366 152.82195343 28.76989081 165.17804789 17 176 C16.67 176 16.34 176 16 176 C15.99853344 175.25308584 15.99706688 174.50617168 15.99555588 173.73662376 C15.95849656 155.55855595 15.89949349 137.38068044 15.81609726 119.20276451 C15.77629593 110.41202871 15.74390901 101.62138258 15.72900391 92.83056641 C15.71599304 85.16805566 15.68904291 77.50574211 15.64538693 69.84334242 C15.62275927 65.78649843 15.60709009 61.72989777 15.60811615 57.67298508 C15.60886201 53.85284986 15.59094185 50.0332528 15.55883217 46.21325684 C15.55032786 44.81287719 15.5485869 43.41243723 15.55419731 42.012043 C15.80199046 32.14143121 15.80199046 32.14143121 11 24 C7.44347808 21.42458758 4.71171557 21.67310222 0 21 C0 14.07 0 7.14 0 0 Z " fill="#FEFDFE" transform="translate(821,753)"/>
<path d="M0 0 C5.70785877 3.96142437 12.0330071 9.59818052 13.65625 16.578125 C14.66728288 24.30629417 13.07428039 30.16199041 8.65625 36.578125 C6.51354175 38.90022278 4.23239389 40.75833241 1.65625 42.578125 C1.10324219 42.990625 0.55023437 43.403125 -0.01953125 43.828125 C-2.68162537 45.73056447 -4.00323045 46.578125 -7.34375 46.578125 C-7.34375 47.238125 -7.34375 47.898125 -7.34375 48.578125 C-6.35375 48.9184375 -6.35375 48.9184375 -5.34375 49.265625 C5.26679892 53.90774015 13.70862896 60.67676103 18.5859375 71.32421875 C20.93177607 78.45591047 20.8176302 85.5748946 17.90625 92.515625 C17.18620438 93.88595404 16.43860804 95.24239177 15.65625 96.578125 C15.099375 97.58875 14.5425 98.599375 13.96875 99.640625 C5.84210353 109.96366241 -4.4737563 115.49587527 -17.34375 117.578125 C-35.1304389 119.15398459 -49.38269573 116.40486475 -63.4453125 104.8515625 C-69.1979294 99.49061313 -72.81430948 93.01139988 -73.58203125 85.1328125 C-73.85428834 75.30289844 -71.24606917 67.7008229 -64.484375 60.46875 C-59.96257701 56.4750452 -54.73406132 53.27328066 -49.34375 50.578125 C-50.57351563 49.47404297 -50.57351563 49.47404297 -51.828125 48.34765625 C-52.91684539 47.36217658 -54.00537706 46.37648839 -55.09375 45.390625 C-55.63257813 44.90787109 -56.17140625 44.42511719 -56.7265625 43.92773438 C-63.24106601 38.0090696 -67.25665499 32.88802256 -67.78125 23.828125 C-67.63161453 16.74181646 -64.51999094 11.1660872 -60.03125 5.828125 C-58.7009375 4.714375 -58.7009375 4.714375 -57.34375 3.578125 C-56.49876953 2.84142578 -56.49876953 2.84142578 -55.63671875 2.08984375 C-40.28605933 -10.50957732 -16.56910853 -10.05192584 0 0 Z " fill="#881D45" transform="translate(851.34375,139.421875)"/>
<path d="M0 0 C6.22959118 5.01379878 10.29188808 11.08330643 12.375 18.8125 C13.6978832 33.37959753 10.83328677 44.42395062 1.375 55.8125 C-4.48250578 62.23480416 -10.77949194 67.9264813 -17.578125 73.33984375 C-22.01227792 76.93832939 -26.29562762 80.70527716 -30.58691406 84.47216797 C-31.19760742 85.00600098 -31.80830078 85.53983398 -32.4375 86.08984375 C-32.98019531 86.56671631 -33.52289062 87.04358887 -34.08203125 87.53491211 C-35.625 88.8125 -35.625 88.8125 -38.625 90.8125 C-33.03830092 90.91164961 -27.45211814 90.98410105 -21.86474609 91.03222656 C-19.96556675 91.05229629 -18.06644885 91.07955851 -16.16748047 91.11425781 C-13.43181161 91.16298109 -10.69696229 91.18551507 -7.9609375 91.203125 C-6.69496231 91.23409271 -6.69496231 91.23409271 -5.40341187 91.26568604 C0.03609103 91.26773932 3.04895318 90.40604723 7.375 86.8125 C7.89707031 86.23886719 8.41914062 85.66523438 8.95703125 85.07421875 C10.97579013 83.27791264 12.41400641 83.5098481 15.0625 83.625 C16.27486328 83.66560547 16.27486328 83.66560547 17.51171875 83.70703125 C18.12660156 83.74183594 18.74148438 83.77664063 19.375 83.8125 C18.56407856 87.89614847 17.75099007 91.97936251 16.9375 96.0625 C16.70740234 97.22136719 16.47730469 98.38023437 16.24023438 99.57421875 C16.01787109 100.68925781 15.79550781 101.80429687 15.56640625 102.953125 C15.36217041 103.97954102 15.15793457 105.00595703 14.94750977 106.06347656 C14.47654955 108.32488892 13.93524099 110.57153605 13.375 112.8125 C-16.655 112.8125 -46.685 112.8125 -77.625 112.8125 C-77.625 101.8125 -77.625 101.8125 -74.5 98.375 C-72.88200644 97.17797114 -71.25579893 95.99202368 -69.625 94.8125 C-67.3217181 92.91248871 -65.06923544 90.9548986 -62.8125 89 C-62.20954102 88.48421387 -61.60658203 87.96842773 -60.98535156 87.43701172 C-56.25850135 83.39174852 -51.64684097 79.23716495 -47.05859375 75.03515625 C-44.9931347 73.14872576 -42.91510069 71.2822765 -40.8125 69.4375 C-40.18859375 68.88964844 -39.5646875 68.34179688 -38.921875 67.77734375 C-37.05500276 66.1803425 -35.1690275 64.61909895 -33.265625 63.06640625 C-23.5603335 55.07731011 -13.90171403 46.39326756 -12.3125 33.22265625 C-12.00789011 26.43556721 -13.19929254 20.71410818 -16.625 14.8125 C-21.9873068 8.95137397 -28.77418391 6.76488257 -36.5625 6.3125 C-42.92985079 6.53069582 -48.59410622 9.03713825 -53.29296875 13.33984375 C-55.52643814 15.91390085 -57.29779237 18.67546379 -58.625 21.8125 C-57.635 21.3175 -57.635 21.3175 -56.625 20.8125 C-51.39659666 20.29136829 -46.98463246 20.16976466 -42.1875 22.4375 C-38.21235958 26.12177649 -35.43128805 29.25837222 -35.1875 34.8125 C-35.46217364 39.77556853 -37.33724693 43.26719631 -40.5 47.0625 C-44.56628768 50.4112075 -48.23754705 51.23306595 -53.51953125 51.0546875 C-61.02501391 50.19134812 -66.67333609 46.41300263 -71.625 40.8125 C-76.04583242 33.21419428 -76.05292196 22.49998576 -73.93359375 14.05859375 C-72.99856493 11.80904743 -71.94507274 9.85820279 -70.625 7.8125 C-69.97144531 6.77029297 -69.97144531 6.77029297 -69.3046875 5.70703125 C-62.83568096 -3.71368045 -54.14585021 -8.13263259 -43.1953125 -10.7734375 C-27.68026157 -13.2728226 -12.6153846 -9.07972955 0 0 Z " fill="#871D45" transform="translate(855.625,290.1875)"/>
<path d="M0 0 C3.96 0 7.92 0 12 0 C12 23.76 12 47.52 12 72 C20.974488 71.01597464 20.974488 71.01597464 28 67 C29.54522234 64.41610171 30.82268729 61.76898687 32 59 C34.64 59 37.28 59 40 59 C40.13443823 66.63030324 39.75596565 74.09692824 39 81.6875 C38.67 85.090625 38.34 88.49375 38 92 C29.42 92 20.84 92 12 92 C12.2165625 95.58875 12.2165625 95.58875 12.4375 99.25 C12.50215454 100.37003418 12.50215454 100.37003418 12.56811523 101.51269531 C12.77963169 104.83793079 13.18766389 107.75065557 14 111 C18.62 111.66 23.24 112.32 28 113 C28 116.63 28 120.26 28 124 C9.19 124 -9.62 124 -29 124 C-29 120.37 -29 116.74 -29 113 C-26.23307292 112.57682292 -23.46614583 112.15364583 -20.69921875 111.73046875 C-17.83669369 110.95580567 -16.79379325 110.30464699 -15 108 C-13.5192152 105.0384304 -13.64685963 102.16493705 -13.4375 98.875 C-13.35371094 97.59367187 -13.26992188 96.31234375 -13.18359375 94.9921875 C-13.12300781 94.00476563 -13.06242188 93.01734375 -13 92 C-13.6573262 92.00888245 -14.3146524 92.01776489 -14.99189758 92.0269165 C-21.82092612 92.11527234 -28.64979286 92.17568545 -35.47924805 92.21972656 C-38.02944532 92.23986697 -40.57959628 92.26718097 -43.12963867 92.30175781 C-46.79096897 92.35016739 -50.45168982 92.37294474 -54.11328125 92.390625 C-55.2571077 92.41127014 -56.40093414 92.43191528 -57.579422 92.45318604 C-58.64029526 92.45348816 -59.70116852 92.45379028 -60.79418945 92.45410156 C-62.19650566 92.46742523 -62.19650566 92.46742523 -63.62715149 92.48101807 C-66 92 -66 92 -67.83433533 90.09838867 C-69 88 -69 88 -68.85644531 85.97167969 C-67.90992889 83.79264131 -66.83101307 82.26691849 -65.296875 80.453125 C-64.73540771 79.78144287 -64.17394043 79.10976074 -63.59545898 78.41772461 C-62.98645752 77.70237549 -62.37745605 76.98702637 -61.75 76.25 C-60.4643018 74.71529761 -59.17915791 73.18013069 -57.89453125 71.64453125 C-57.24178223 70.86803223 -56.5890332 70.0915332 -55.91650391 69.29150391 C-53.05422055 65.86916103 -50.24392477 62.40567921 -47.4375 58.9375 C-46.36599696 57.61579498 -45.29438219 56.29418053 -44.22265625 54.97265625 C-43.6930127 54.3192627 -43.16336914 53.66586914 -42.61767578 52.99267578 C-40.9760329 50.97047699 -39.33038484 48.95160162 -37.68359375 46.93359375 C-32.06174015 40.03972646 -26.50029999 33.10862517 -21.03393555 26.09082031 C-17.40265292 21.45457507 -13.64149446 16.93886853 -9.77075195 12.50048828 C-7.20015023 9.53159826 -5.0812822 6.54623413 -3.0625 3.1875 C-2.051875 2.135625 -1.04125 1.08375 0 0 Z " fill="#871D45" transform="translate(715,279)"/>
<path d="M0 0 C0.00586624 1.2645401 0.01173248 2.5290802 0.01777649 3.8319397 C0.07499466 15.75027358 0.14775181 27.66842485 0.23571491 39.58657265 C0.28043825 45.71378896 0.31969027 51.84093847 0.34643555 57.96826172 C0.3724486 63.88170364 0.4128374 69.79488879 0.46318626 75.70817184 C0.47986839 77.96396058 0.49137427 80.21979374 0.49761391 82.47563553 C0.50724008 85.63588618 0.53528266 88.7954779 0.56762695 91.95556641 C0.56619186 92.88777008 0.56475677 93.81997375 0.5632782 94.78042603 C0.63752174 99.91128115 1.07068395 103.59454511 4 108 C8.06725434 110.7115029 11.1547611 110.57867488 16 111 C16 114.96 16 118.92 16 123 C-3.14 123 -22.28 123 -42 123 C-42 119.04 -42 115.08 -42 111 C-40.618125 110.938125 -39.23625 110.87625 -37.8125 110.8125 C-34.12576911 110.40608872 -33.06672083 110.05143064 -30 107.6875 C-26.59584578 103.11316777 -26.85892162 98.8449456 -26.88647461 93.29394531 C-26.88632858 92.52282913 -26.88618256 91.75171295 -26.8860321 90.95722961 C-26.88672751 88.4141659 -26.89450251 85.87117588 -26.90234375 83.328125 C-26.90420925 81.56264282 -26.90563253 79.79716013 -26.90663147 78.03167725 C-26.91044625 73.38908454 -26.92026768 68.7465232 -26.93133545 64.10394287 C-26.9415719 59.36487248 -26.94613388 54.62579701 -26.95117188 49.88671875 C-26.96189087 40.59112984 -26.97947928 31.29557244 -27 22 C-31.95 21.67 -36.9 21.34 -42 21 C-42 17.37 -42 13.74 -42 10 C-40.36933594 9.61328125 -38.73867188 9.2265625 -37.05859375 8.828125 C-26.19877802 6.24265253 -15.35578088 3.64771375 -4.59765625 0.6640625 C-2 0 -2 0 0 0 Z " fill="#8A2048" transform="translate(727,133)"/>
<path d="M0 0 C6.6 0 13.2 0 20 0 C21.69428503 4.46442827 23.38614737 8.92962632 25.07202148 13.3972168 C25.64582357 14.91564766 26.22100383 16.43355849 26.79760742 17.95092773 C27.62784976 20.13649234 28.45306013 22.32390097 29.27734375 24.51171875 C29.53466782 25.18587326 29.79199188 25.86002777 30.05711365 26.55461121 C31.35403145 30.01210701 32.40780741 33.35172546 33 37 C33.66 37 34.32 37 35 37 C35.10884521 36.16194824 35.21769043 35.32389648 35.32983398 34.46044922 C36.06594306 30.6594984 37.29853375 27.21420067 38.72265625 23.6328125 C38.98759384 22.95322479 39.25253143 22.27363708 39.52549744 21.57345581 C40.36574735 19.42180285 41.21397748 17.27340218 42.0625 15.125 C42.63659954 13.65906233 43.2101727 12.19291841 43.78320312 10.7265625 C45.18175875 7.14820309 46.59108142 3.57436056 48 0 C54.6 0 61.2 0 68 0 C68 19.47 68 38.94 68 59 C63.38 59 58.76 59 54 59 C53.67 46.79 53.34 34.58 53 22 C51.60974609 25.75503906 51.60974609 25.75503906 50.19140625 29.5859375 C49.29478681 32.00530923 48.39777868 34.4245365 47.50073242 36.84375 C46.8766273 38.52751839 46.25292754 40.21143709 45.62963867 41.89550781 C44.73462278 44.31354598 43.83815927 46.73104311 42.94140625 49.1484375 C42.6622084 49.9036972 42.38301056 50.65895691 42.09535217 51.43710327 C40.11387171 56.77225659 40.11387171 56.77225659 39 59 C35.7 59 32.4 59 29 59 C25.51451843 51.45083781 22.60551277 43.74373671 19.75 35.9375 C17.39875 29.5334375 17.39875 29.5334375 15 23 C14.67 34.88 14.34 46.76 14 59 C9.38 59 4.76 59 0 59 C0 39.53 0 20.06 0 0 Z " fill="#882047" transform="translate(914,1058)"/>
<path d="M0 0 C7.07775423 5.10609412 11.12051647 10.73978665 14 19 C15.10079543 28.0495624 13.61537368 35.67060201 8.4921875 43.22265625 C3.40909901 49.54696403 -2.91755005 53.76415138 -11 55 C-19.67895363 55.80214571 -26.12969766 54.5790656 -33.1953125 49.38671875 C-38.93329198 44.61212697 -43.3476758 39.43545888 -45 32 C-45.77822658 22.45648456 -45.05263151 14.39479018 -38.875 6.8125 C-28.53269735 -4.16658986 -13.50016349 -8.69328709 0 0 Z " fill="#881C45" transform="translate(793,643)"/>
<path d="M0 0 C6.01761728 5.1167072 10.27395496 11.82786473 11.37890625 19.69921875 C11.75397029 28.37408692 9.14358077 34.62297877 3.75 41.3125 C-1.6501802 46.98438738 -5.92084621 49.11144324 -13.86572266 49.46850586 C-23.10885753 49.60490078 -28.8855461 48.00058213 -35.75 41.8125 C-41.96741915 35.08289071 -43.77073218 28.31911229 -43.44140625 19.21484375 C-42.34059733 11.19744779 -38.37539914 5.36914662 -32.08984375 0.40625 C-22.47581999 -6.06299963 -9.88712186 -6.08306457 0 0 Z " fill="#881C45" transform="translate(312,270)"/>
<path d="M0 0 C3.77548749 6.87678079 4.03709357 14.30822266 3 22 C0.2768885 29.69485295 -4.81211771 34.39344854 -12 38 C-21.82584955 41.79243316 -29.56365203 39.80699224 -39 36 C-47.2164781 32.32351856 -54.98904891 26.57945747 -60 19 C-60 18.34 -60 17.68 -60 17 C-10.62132907 -4.98033612 -10.62132907 -4.98033612 0 0 Z " fill="#FDF9FC" transform="translate(319,658)"/>
<path d="M0 0 C8.89706811 3.79367371 19.70193492 9.55515723 24.27734375 18.49609375 C25.78081153 23.70540643 24.73548016 28.40645966 22.5 33.25 C17.83266523 38.38406825 11.6725859 41.58035498 4.73828125 42.203125 C-2.68991935 42.34666511 -9.29903476 41.28452578 -15.375 36.75 C-19.9343049 31.97358535 -21.16130394 28.00410478 -21.4375 21.5625 C-21.19929328 14.85606478 -19.51691759 10.55715251 -14.80078125 5.765625 C-6.74644638 -1.54942309 -6.74644638 -1.54942309 0 0 Z " fill="#FDFAFC" transform="translate(823,200)"/>
<path d="M0 0 C16.17 0 32.34 0 49 0 C49 3.96 49 7.92 49 12 C43.39 12 37.78 12 32 12 C32 27.51 32 43.02 32 59 C27.05 59 22.1 59 17 59 C17 43.49 17 27.98 17 12 C11.39 12 5.78 12 0 12 C0 8.04 0 4.08 0 0 Z " fill="#89234A" transform="translate(858,1058)"/>
<path d="M0 0 C2.93980091 1.59318243 4.69123234 3.38964466 6.4375 6.25 C7.48778351 11.39638918 6.98130033 16.02553943 4.3125 20.5625 C1.69677974 24.17748418 -0.75308106 26.88816026 -4.5625 29.25 C-11.46378981 29.78086845 -16.46639641 25.41640901 -21.5625 21.25 C-24.21315274 18.9543454 -26.24083106 16.84573025 -26.9609375 13.2734375 C-27.1796213 8.78200866 -26.48169816 5.64003657 -23.5625 2.25 C-16.72657556 -3.13147243 -7.91697908 -3.68095706 0 0 Z " fill="#FDF9FC" transform="translate(834.5625,149.75)"/>
<path d="M0 0 C0.33 0 0.66 0 1 0 C1.19491883 4.19075475 0.93330576 7.24079436 -1 11 C-3.84372338 12.42186169 -6.23371532 12.12405519 -9.41495705 12.12304783 C-10.08417234 12.12420167 -10.75338763 12.12535552 -11.44288218 12.12654433 C-13.70735806 12.12921185 -15.97176424 12.12468772 -18.23623657 12.12025452 C-19.867259 12.12069019 -21.49828135 12.12156503 -23.12930334 12.12284368 C-27.62841516 12.12508939 -32.12750337 12.12106632 -36.62661219 12.11606562 C-41.47188474 12.11176239 -46.31715588 12.11320745 -51.16242981 12.1139679 C-59.56290632 12.11449321 -67.96337508 12.11134561 -76.36384964 12.10573006 C-88.50964859 12.09761609 -100.65544377 12.09499994 -112.80124514 12.09374207 C-132.5051942 12.09155138 -152.20913912 12.08489086 -171.91308594 12.07543945 C-191.0579425 12.06626576 -210.20279794 12.05918472 -229.34765625 12.05493164 C-230.52699406 12.05466892 -231.70633186 12.05440619 -232.92140718 12.05413551 C-238.83757405 12.05283051 -244.75374093 12.05156679 -250.66990781 12.05032361 C-299.77994139 12.03995049 -348.8899705 12.02233173 -398 12 C-398 11.67 -398 11.34 -398 11 C-202.97 10.505 -202.97 10.505 -4 10 C-2.68 6.7 -1.36 3.4 0 0 Z " fill="#792344" transform="translate(978,715)"/>
<path d="M0 0 C0.33 0 0.66 0 1 0 C1 9.9 1 19.8 1 30 C-6.92 30 -14.84 30 -23 30 C-21.02725715 26.0545143 -18.67017942 22.85498087 -15.9375 19.4375 C-15.4523291 18.82559814 -14.9671582 18.21369629 -14.46728516 17.58325195 C-2.38625366 2.38625366 -2.38625366 2.38625366 0 0 Z " fill="#FBF3F8" transform="translate(701,321)"/>
<path d="M0 0 C0.66 0 1.32 0 2 0 C2 33.33 2 66.66 2 101 C1.34 101 0.68 101 0 101 C-0.15356257 87.97895276 -0.30174436 74.95785666 -0.4429636 61.93666935 C-0.50870102 55.89109495 -0.57632607 49.84555371 -0.64819336 43.80004883 C-0.71741802 37.971101 -0.781778 32.14211829 -0.84269524 26.31307793 C-0.86686111 24.08380605 -0.89281113 21.85455282 -0.92053413 19.62532234 C-0.95892078 16.51464888 -0.99109125 13.40397092 -1.02172852 10.29321289 C-1.03467453 9.36173431 -1.04762054 8.43025574 -1.06095886 7.47055054 C-1.07897434 5.31367988 -1.04530854 3.15646997 -1 1 C-0.67 0.67 -0.34 0.34 0 0 Z " fill="#98536F" transform="translate(725,133)"/>
<path d="M0 0 C0.66 0 1.32 0 2 0 C4.51795652 5.86857062 5.48904661 10.57397076 5.375 16.9375 C5.36919922 17.72366699 5.36339844 18.50983398 5.35742188 19.31982422 C5.22924447 25.04626861 4.34373825 29.72658894 2 35 C1.34 35 0.68 35 0 35 C0.32484375 33.92685547 0.32484375 33.92685547 0.65625 32.83203125 C3.85289974 21.39216899 4.24523699 11.19428564 0 0 Z " fill="#7C2848" transform="translate(374,152)"/>
<path d="M0 0 C2.50164298 3.75246447 2.49592081 6.66069292 2 11 C0.66091768 16.69109985 -1.60500071 20.19891953 -6 24 C-5.66700889 20.42034559 -5.40787949 18.46523754 -3 15.71875 C-0.54408361 12.38023866 -0.41571575 10.28896478 -0.25 6.1875 C-0.19328125 5.02605469 -0.1365625 3.86460938 -0.078125 2.66796875 C-0.05234375 1.78753906 -0.0265625 0.90710938 0 0 Z " fill="#7E2748" transform="translate(321,123)"/>
<path d="M0 0 C0.66 0.33 1.32 0.66 2 1 C0.02 1.99 0.02 1.99 -2 3 C-1.34 2.01 -0.68 1.02 0 0 Z M-4 3 C-3.34 3 -2.68 3 -2 3 C-3.44575901 6.33865998 -5.26714538 8.48071403 -7.875 11 C-8.55304688 11.66 -9.23109375 12.32 -9.9296875 13 C-10.61289063 13.66 -11.29609375 14.32 -12 15 C-13.33564213 16.33102053 -14.66965284 17.66368716 -16 19 C-14.58794973 14.70983633 -12.50383651 12.03782149 -9.4375 8.75 C-8.22900391 7.44289062 -8.22900391 7.44289062 -6.99609375 6.109375 C-5 4 -5 4 -4 3 Z " fill="#F9E4F0" transform="translate(148,218)"/>
<path d="M0 0 C-0.33 0.66 -0.66 1.32 -1 2 C-3.97 1.505 -3.97 1.505 -7 1 C-7.020625 1.5775 -7.04125 2.155 -7.0625 2.75 C-8.61742252 6.48181404 -11.39538016 7.32198732 -15 9 C-15.99 8.67 -16.98 8.34 -18 8 C-16.88625 7.13375 -16.88625 7.13375 -15.75 6.25 C-12.99588603 4.16661588 -12.99588603 4.16661588 -11.25 1.75 C-7.77868984 -0.9499079 -4.24360147 -0.32643088 0 0 Z " fill="#8D3A5A" transform="translate(875,374)"/>
<path d="M0 0 C0 3 0 3 -1.19335938 4.53393555 C-1.73798828 5.062854 -2.28261719 5.59177246 -2.84375 6.13671875 C-3.72353516 7.00200195 -3.72353516 7.00200195 -4.62109375 7.88476562 C-5.24113281 8.47966797 -5.86117187 9.07457031 -6.5 9.6875 C-7.12003906 10.29400391 -7.74007812 10.90050781 -8.37890625 11.52539062 C-9.91264707 13.02373743 -11.45548198 14.51276493 -13 16 C-13.33 15.01 -13.66 14.02 -14 13 C-9.52647956 8.40410362 -4.91935902 4.11619836 0 0 Z " fill="#F5E0EC" transform="translate(242,370)"/>
<path d="M0 0 C0.66 0.33 1.32 0.66 2 1 C0.06478939 2.79419526 -1.8730354 4.58541329 -3.8125 6.375 C-4.63331055 7.13683594 -4.63331055 7.13683594 -5.47070312 7.9140625 C-7.90022015 10.15216303 -10.24568668 12.16379112 -13 14 C-11.64101764 9.77533744 -9.86283346 7.6105921 -6.5 4.75 C-5.30890625 3.72132813 -5.30890625 3.72132813 -4.09375 2.671875 C-2 1 -2 1 0 0 Z " fill="#F9E6F1" transform="translate(384,855)"/>
<path d="M0 0 C0 3 0 3 -2 6 C-2.99 6 -3.98 6 -5 6 C-5.268125 6.598125 -5.53625 7.19625 -5.8125 7.8125 C-7.02493496 10.04593283 -7.94652273 11.49938199 -10 13 C-12.1015625 12.57421875 -12.1015625 12.57421875 -14 12 C-12.86111328 11.07767578 -12.86111328 11.07767578 -11.69921875 10.13671875 C-10.70535156 9.32847656 -9.71148438 8.52023437 -8.6875 7.6875 C-7.70136719 6.88699219 -6.71523438 6.08648437 -5.69921875 5.26171875 C-3.68397834 3.57311644 -1.80511991 1.90369301 0 0 Z " fill="#822D4D" transform="translate(809,365)"/>
<path d="M0 0 C0.09688221 5.44693314 0.12862175 10.63904667 -1 16 C-1.33 16 -1.66 16 -2 16 C-2 11.38 -2 6.76 -2 2 C-4.64 2 -7.28 2 -10 2 C-10 1.67 -10 1.34 -10 1 C-2.25 0 -2.25 0 0 0 Z " fill="#833654" transform="translate(267,321)"/>
<path d="M0 0 C0.33 0 0.66 0 1 0 C1.19491883 4.19075475 0.93330576 7.24079436 -1 11 C-3.88415883 12.44207941 -6.41721528 12.09394887 -9.625 12.0625 C-10.81351563 12.05347656 -12.00203125 12.04445313 -13.2265625 12.03515625 C-14.14179687 12.02355469 -15.05703125 12.01195312 -16 12 C-16 11.67 -16 11.34 -16 11 C-10.06 10.505 -10.06 10.505 -4 10 C-2.68 6.7 -1.36 3.4 0 0 Z " fill="#822B4C" transform="translate(978,715)"/>
<path d="M0 0 C0.66 0 1.32 0 2 0 C2.75 1.625 2.75 1.625 3 4 C1.73779907 6.04563599 0.39712274 8.04402816 -1 10 C-1.71573527 11.64619113 -2.4025696 13.30728055 -3 15 C-3.66 15 -4.32 15 -5 15 C-3.33333333 10 -1.66666667 5 0 0 Z " fill="#883253" transform="translate(955,1076)"/>
<path d="M0 0 C0.33 0 0.66 0 1 0 C1 8.91 1 17.82 1 27 C0.01 26.34 -0.98 25.68 -2 25 C-2 24.34 -2 23.68 -2 23 C-1.34 23 -0.68 23 0 23 C0 15.41 0 7.82 0 0 Z " fill="#7A2847" transform="translate(187,756)"/>
<path d="M0 0 C0.66 0.33 1.32 0.66 2 1 C0.61536194 2.32430525 -0.7832323 3.63402803 -2.1875 4.9375 C-2.96480469 5.66839844 -3.74210938 6.39929687 -4.54296875 7.15234375 C-7.13122646 9.09868063 -8.81859299 9.64399886 -12 10 C-10.69522778 6.08568335 -9.01326694 5.42187412 -5.5625 3.25 C-4.57378906 2.61578125 -3.58507812 1.9815625 -2.56640625 1.328125 C-1.29603516 0.67070313 -1.29603516 0.67070313 0 0 Z " fill="#842E4E" transform="translate(716,1028)"/>
<path d="M0 0 C0 5.48231797 -4.73336121 9.66669601 -8.375 13.5 C-8.91125 13.995 -9.4475 14.49 -10 15 C-10.66 14.67 -11.32 14.34 -12 14 C-8.04 9.38 -4.08 4.76 0 0 Z " fill="#833251" transform="translate(666,340)"/>
<path d="M0 0 C-1.31224548 3.93673644 -2.91910327 6.22719294 -6 9 C-6.93131785 5.95205066 -7.29757762 4.57949326 -5.8125 1.6875 C-4 0 -4 0 0 0 Z " fill="#85294C" transform="translate(863,336)"/>
<path d="M0 0 C2.29982088 2.19653551 4.22764592 4.5120366 6.125 7.0625 C6.64320313 7.75472656 7.16140625 8.44695312 7.6953125 9.16015625 C9 11 9 11 10 13 C9.01 14.485 9.01 14.485 8 16 C7.608125 15.175 7.21625 14.35 6.8125 13.5 C5.0487185 10.0940771 3.09154069 6.93579644 0.98828125 3.734375 C0 2 0 2 0 0 Z " fill="#843050" transform="translate(218,435)"/>
<path d="M0 0 C0.99 0.33 1.98 0.66 3 1 C1.9275 1.721875 0.855 2.44375 -0.25 3.1875 C-3.41994768 5.43796996 -5.7261994 7.81667916 -8 11 C-8.66 10.67 -9.32 10.34 -10 10 C-8.7121669 8.51749445 -7.41960936 7.03909182 -6.125 5.5625 C-5.40570312 4.73878906 -4.68640625 3.91507812 -3.9453125 3.06640625 C-2 1 -2 1 0 0 Z " fill="#843151" transform="translate(796,286)"/>
<path d="M0 0 C0.33 0.66 0.66 1.32 1 2 C-4.96583144 9.66742597 -4.96583144 9.66742597 -10 11 C-6.79239749 7.19364503 -3.59253891 3.45436433 0 0 Z " fill="#80284A" transform="translate(186,677)"/>
<path d="M0 0 C0 4.24170573 -1.83750763 6.75139708 -4.6875 9.8125 C-5.120625 10.204375 -5.55375 10.59625 -6 11 C-6.66 10.67 -7.32 10.34 -8 10 C-5.61820737 6.25718301 -3.25524265 3.02272532 0 0 Z " fill="#832C4D" transform="translate(279,271)"/>
<path d="M0 0 C0.33 0.66 0.66 1.32 1 2 C-1.31 4.64 -3.62 7.28 -6 10 C-6.99 9.67 -7.98 9.34 -9 9 C-6.03 6.03 -3.06 3.06 0 0 Z " fill="#883252" transform="translate(863,902)"/>
<path d="M0 0 C0.66 0 1.32 0 2 0 C2.042721 1.66611905 2.04063832 3.33382885 2 5 C1.67 5.33 1.34 5.66 1 6 C0.76807135 7.51469448 0.58784762 9.03754562 0.4375 10.5625 C0.35371094 11.38878906 0.26992188 12.21507812 0.18359375 13.06640625 C0.12300781 13.70449219 0.06242187 14.34257812 0 15 C-0.66 14.67 -1.32 14.34 -2 14 C-1.85795259 12.41632253 -1.71119847 10.83306682 -1.5625 9.25 C-1.48128906 8.36828125 -1.40007812 7.4865625 -1.31640625 6.578125 C-1.03761535 4.30649548 -0.61209423 2.20148177 0 0 Z " fill="#8A3C5A" transform="translate(327,243)"/>
<path d="M0 0 C0.66 0 1.32 0 2 0 C2.33 1.32 2.66 2.64 3 4 C2.01 4.33 1.02 4.66 0 5 C0 6.98 0 8.96 0 11 C-0.66 10.67 -1.32 10.34 -2 10 C-1.54177532 6.53058454 -1.10868317 3.32604951 0 0 Z " fill="#843151" transform="translate(783,301)"/>
<path d="M0 0 C0.33 1.32 0.66 2.64 1 4 C-1.97 6.475 -1.97 6.475 -5 9 C-5.66 8.67 -6.32 8.34 -7 8 C-4.69 5.36 -2.38 2.72 0 0 Z " fill="#883152" transform="translate(700,298)"/>
<path d="M0 0 C3.3 0 6.6 0 10 0 C10 0.99 10 1.98 10 3 C6.7 3 3.4 3 0 3 C0 2.01 0 1.02 0 0 Z " fill="#782444" transform="translate(943,1114)"/>
<path d="M0 0 C3.05402088 1.52701044 3.65869481 3.95157912 5 7 C5 7.99 5 8.98 5 10 C5.66 10 6.32 10 7 10 C6.67 10.99 6.34 11.98 6 13 C2.10014426 8.84015388 1.10830253 5.44915409 0 0 Z " fill="#843252" transform="translate(784,166)"/>
<path d="M0 0 C-1.76641683 0.6987693 -3.53832664 1.38366583 -5.3125 2.0625 C-6.79169922 2.63677734 -6.79169922 2.63677734 -8.30078125 3.22265625 C-11 4 -11 4 -14 3 C-9.30516132 0.47200994 -5.26738261 -1.6006486 0 0 Z " fill="#823351" transform="translate(576,1179)"/>
<path d="M0 0 C1.98 0.99 1.98 0.99 4 2 C4 2.66 4 3.32 4 4 C4.99 3.67 5.98 3.34 7 3 C8.125 6.75 8.125 6.75 7 9 C5.83037314 7.69013727 4.66437056 6.3770374 3.5 5.0625 C2.8503125 4.33160156 2.200625 3.60070312 1.53125 2.84765625 C0 1 0 1 0 0 Z " fill="#843050" transform="translate(175,769)"/>
<path d="M0 0 C0.33 1.32 0.66 2.64 1 4 C-0.21484375 5.921875 -0.21484375 5.921875 -1.9375 7.75 C-2.50339844 8.36359375 -3.06929688 8.9771875 -3.65234375 9.609375 C-4.31943359 10.29773438 -4.31943359 10.29773438 -5 11 C-5.66 10.67 -6.32 10.34 -7 10 C-3.535 5.05 -3.535 5.05 0 0 Z " fill="#7F2A4A" transform="translate(460,348)"/>
<path d="M0 0 C0.33 0 0.66 0 1 0 C1.13277344 0.67546875 1.26554688 1.3509375 1.40234375 2.046875 C1.57894531 2.93890625 1.75554688 3.8309375 1.9375 4.75 C2.11152344 5.63171875 2.28554688 6.5134375 2.46484375 7.421875 C2.92368488 9.63235053 3.43336074 11.81512068 4 14 C3.01 14 2.02 14 1 14 C-0.20568053 9.32798795 -0.09382426 4.78503708 0 0 Z " fill="#8C3A5A" transform="translate(801,220)"/>
<path d="M0 0 C0 3.77910478 -0.99703962 4.46106101 -3.5 7.1875 C-4.1496875 7.90292969 -4.799375 8.61835938 -5.46875 9.35546875 C-5.9740625 9.89816406 -6.479375 10.44085938 -7 11 C-7.66 10.67 -8.32 10.34 -9 10 C-7.8758824 8.70756532 -6.75067408 7.41607925 -5.625 6.125 C-4.99851562 5.40570313 -4.37203125 4.68640625 -3.7265625 3.9453125 C-2.52573166 2.5923402 -1.2791655 1.2791655 0 0 Z " fill="#822D4D" transform="translate(342,221)"/>
<path d="M0 0 C0.99 0.33 1.98 0.66 3 1 C1.02 2.98 -0.96 4.96 -3 7 C-3.99 6.67 -4.98 6.34 -6 6 C-4.02 4.02 -2.04 2.04 0 0 Z " fill="#8B3958" transform="translate(844,922)"/>
<path d="M0 0 C0.33 0.99 0.66 1.98 1 3 C-0.40445835 5.2636564 -2.1967913 7.0208685 -4 9 C-4.33 8.01 -4.66 7.02 -5 6 C-3.59554165 3.7363436 -1.8032087 1.9791315 0 0 Z " fill="#822548" transform="translate(890,869)"/>
<path d="M0 0 C0.33 0.66 0.66 1.32 1 2 C0.0625 4.125 0.0625 4.125 -1 6 C-1.66 6 -2.32 6 -3 6 C-3.66 7.65 -4.32 9.3 -5 11 C-5.66 11 -6.32 11 -7 11 C-5.22054913 6.95579349 -2.60470327 3.53921513 0 0 Z " fill="#823150" transform="translate(900,855)"/>
<path d="M0 0 C5.02254631 -0.2954439 7.89542386 0.01485372 12 3 C8.52128379 4.15957207 7.65780355 3.77456651 4.3125 2.5625 C3.50425781 2.27503906 2.69601562 1.98757813 1.86328125 1.69140625 C1.24839844 1.46324219 0.63351562 1.23507812 0 1 C0 0.67 0 0.34 0 0 Z " fill="#914361" transform="translate(821,774)"/>
<path d="M0 0 C0.99 0 1.98 0 3 0 C3 0.66 3 1.32 3 2 C1.3203125 3.2890625 1.3203125 3.2890625 -0.875 4.625 C-1.95394531 5.29402344 -1.95394531 5.29402344 -3.0546875 5.9765625 C-5 7 -5 7 -7 7 C-7 6.34 -7 5.68 -7 5 C-6.01 5 -5.02 5 -4 5 C-4 4.34 -4 3.68 -4 3 C-3.01 3 -2.02 3 -1 3 C-0.67 2.01 -0.34 1.02 0 0 Z " fill="#822C4D" transform="translate(749,582)"/>
<path d="M0 0 C0 0.99 0 1.98 0 3 C-1.26418246 3.69965443 -2.53665402 4.38434763 -3.8125 5.0625 C-4.52019531 5.44535156 -5.22789062 5.82820313 -5.95703125 6.22265625 C-8 7 -8 7 -11 6 C-7.37 4.02 -3.74 2.04 0 0 Z " fill="#833050" transform="translate(630,456)"/>
<path d="M0 0 C-2.97 1.65 -5.94 3.3 -9 5 C-9 4.01 -9 3.02 -9 2 C-5.3823098 -0.81375904 -4.61553765 -1.15388441 0 0 Z " fill="#832E4F" transform="translate(453,268)"/>
<path d="M0 0 C0.66 0.33 1.32 0.66 2 1 C-2.30769231 6.78461538 -2.30769231 6.78461538 -5.8125 7.875 C-6.8953125 7.936875 -6.8953125 7.936875 -8 8 C-5.33333333 5.33333333 -2.66666667 2.66666667 0 0 Z " fill="#853353" transform="translate(354,210)"/>
<path d="M0 0 C0.66 0 1.32 0 2 0 C1.54803755 1.60597325 1.08817673 3.20972508 0.625 4.8125 C0.36976563 5.70582031 0.11453125 6.59914063 -0.1484375 7.51953125 C-1 10 -1 10 -3 13 C-2.45144652 8.428721 -1.58255197 4.32564205 0 0 Z " fill="#853554" transform="translate(961,1089)"/>
<path d="M0 0 C0.33 0.99 0.66 1.98 1 3 C-0.21484375 4.82421875 -0.21484375 4.82421875 -1.9375 6.6875 C-2.50339844 7.31011719 -3.06929687 7.93273437 -3.65234375 8.57421875 C-4.09707031 9.04472656 -4.54179688 9.51523437 -5 10 C-5.33 9.01 -5.66 8.02 -6 7 C-4.78515625 5.17578125 -4.78515625 5.17578125 -3.0625 3.3125 C-2.49660156 2.68988281 -1.93070313 2.06726563 -1.34765625 1.42578125 C-0.90292969 0.95527344 -0.45820312 0.48476563 0 0 Z " fill="#832F4F" transform="translate(652,357)"/>
<path d="M0 0 C0.66 0.33 1.32 0.66 2 1 C1.34 4.3 0.68 7.6 0 11 C-0.99 11.33 -1.98 11.66 -3 12 C-2.01 8.04 -1.02 4.08 0 0 Z " fill="#853454" transform="translate(377,175)"/>
<path d="M0 0 C0 3.39593478 -0.52165948 4.06619881 -2.5 6.6875 C-2.9640625 7.31011719 -3.428125 7.93273437 -3.90625 8.57421875 C-4.2671875 9.04472656 -4.628125 9.51523437 -5 10 C-5.66 9.67 -6.32 9.34 -7 9 C-4.69 6.03 -2.38 3.06 0 0 Z " fill="#883656" transform="translate(690,310)"/>
<path d="M0 0 C0.66 0 1.32 0 2 0 C1.55123384 1.64846769 1.09069512 3.29373455 0.625 4.9375 C0.36976562 5.85402344 0.11453125 6.77054688 -0.1484375 7.71484375 C-1 10 -1 10 -3 11 C-2.69217504 9.35328588 -2.37860766 7.70764424 -2.0625 6.0625 C-1.88847656 5.14597656 -1.71445313 4.22945312 -1.53515625 3.28515625 C-1 1 -1 1 0 0 Z " fill="#883656" transform="translate(1040,724)"/>
<path d="M0 0 C0.99 0.33 1.98 0.66 3 1 C2.67 2.32 2.34 3.64 2 5 C1.01 5 0.02 5 -1 5 C-0.67 3.35 -0.34 1.7 0 0 Z " fill="#8A274D" transform="translate(818,374)"/>
<path d="M0 0 C0.66 0.33 1.32 0.66 2 1 C0.02 3.31 -1.96 5.62 -4 8 C-4.66 7.67 -5.32 7.34 -6 7 C-4.02 4.69 -2.04 2.38 0 0 Z " fill="#893958" transform="translate(789,198)"/>
<path d="M0 0 C3.85645121 -0.22036864 6.49223216 0.39644899 10 2 C8.375 3.1875 8.375 3.1875 6 4 C2.75 2.625 2.75 2.625 0 1 C0 0.67 0 0.34 0 0 Z " fill="#893757" transform="translate(451,1153)"/>
<path d="M0 0 C2 3 2 3 1.75 5 C1 7 1 7 -1 10 C-1.125 3.375 -1.125 3.375 0 0 Z " fill="#7F3A55" transform="translate(464,993)"/>
<path d="M0 0 C0.33 0.99 0.66 1.98 1 3 C-0.40445835 5.2636564 -2.1967913 7.0208685 -4 9 C-4.33 8.01 -4.66 7.02 -5 6 C-3.59554165 3.7363436 -1.8032087 1.9791315 0 0 Z " fill="#842F50" transform="translate(875,887)"/>
<path d="M0 0 C4.55384615 -0.36923077 4.55384615 -0.36923077 6.8125 1.5 C7.204375 1.995 7.59625 2.49 8 3 C4.37673261 4.2077558 3.35853631 3.54311128 0 2 C0 1.34 0 0.68 0 0 Z " fill="#863151" transform="translate(477,859)"/>
<path d="M0 0 C-3.96 1.98 -3.96 1.98 -8 4 C-8 2.68 -8 1.36 -8 0 C-4.63458162 -1.08174162 -3.70152678 -0.92538169 0 0 Z " fill="#863151" transform="translate(388,854)"/>
<path d="M0 0 C0.66 0 1.32 0 2 0 C2.66 2.64 3.32 5.28 4 8 C3.01 8.495 3.01 8.495 2 9 C0.50178941 5.62902617 0 3.79557881 0 0 Z " fill="#842F4F" transform="translate(105,698)"/>
<path d="M0 0 C0 3.51716303 -0.82445585 4.37121748 -3 7 C-4.32 6.67 -5.64 6.34 -7 6 C-4.69 4.02 -2.38 2.04 0 0 Z " fill="#843151" transform="translate(794,378)"/>
<path d="M0 0 C0.33 0.66 0.66 1.32 1 2 C4.63 2 8.26 2 12 2 C12 2.33 12 2.66 12 3 C5.565 3.495 5.565 3.495 -1 4 C-0.67 2.68 -0.34 1.36 0 0 Z " fill="#EEC7DA" transform="translate(798,308)"/>
<path d="M0 0 C-3.96 1.98 -3.96 1.98 -8 4 C-8.33 3.34 -8.66 2.68 -9 2 C-4.5 -1.125 -4.5 -1.125 0 0 Z " fill="#8B3657" transform="translate(157,214)"/>
</svg>
